<?xml version="1.0" encoding="UTF-8" standalone="no"?>
<svg width="47px" height="53px" viewBox="0 0 47 53" version="1.1" xmlns="http://www.w3.org/2000/svg" xmlns:xlink="http://www.w3.org/1999/xlink">
    <!-- Generator: Sketch 40.3 (33839) - http://www.bohemiancoding.com/sketch -->
    <title>Commercial</title>
    <desc>Created with Sketch.</desc>
    <defs></defs>
    <g id="Page-1" stroke="none" stroke-width="1" fill="none" fill-rule="evenodd">
        <g id="Artboard" transform="translate(-582.000000, -35.000000)">
            <g id="Commercial" transform="translate(552.000000, 36.000000)">
                <g transform="translate(30.000000, 0.000000)">
                    <path d="M15.5312625,4.43688333 L10.4739792,4.43688333 C10.2249375,4.43688333 10.0228083,4.6390125 10.0228083,4.88805417 L10.0228083,15.0026208 C10.0228083,15.2522417 10.2249375,15.4543708 10.4739792,15.4543708 L15.5312625,15.4543708 C15.7808833,15.4543708 15.9824333,15.2522417 15.9824333,15.0026208 L15.9824333,4.88863333 C15.9830125,4.63959167 15.7808833,4.43688333 15.5312625,4.43688333 L15.5312625,4.43688333 Z M15.0800917,14.55145 L10.9257292,14.55145 L10.9257292,5.34038333 L15.0795125,5.34038333 L15.0795125,14.55145 L15.0800917,14.55145 Z" id="Shape" fill="#BE4459"></path>
                    <path d="M25.64525,4.43688333 L20.5885458,4.43688333 C20.3383458,4.43688333 20.1367958,4.6390125 20.1367958,4.88805417 L20.1367958,15.0026208 C20.1367958,15.2522417 20.3383458,15.4543708 20.5885458,15.4543708 L25.64525,15.4543708 C25.8942917,15.4543708 26.0964208,15.2522417 26.0964208,15.0026208 L26.0964208,4.88863333 C26.097,4.63959167 25.8942917,4.43688333 25.64525,4.43688333 L25.64525,4.43688333 Z M25.1929208,14.55145 L21.0402958,14.55145 L21.0402958,5.34038333 L25.1929208,5.34038333 L25.1929208,14.55145 L25.1929208,14.55145 Z" id="Shape" fill="#BE4459"></path>
                    <path d="M15.5312625,19.6081542 L10.4739792,19.6081542 C10.2249375,19.6081542 10.0228083,19.8102833 10.0228083,20.0599042 L10.0228083,30.1744708 C10.0228083,30.4235125 10.2249375,30.6256417 10.4739792,30.6256417 L15.5312625,30.6256417 C15.7808833,30.6256417 15.9824333,30.4229333 15.9824333,30.1744708 L15.9824333,20.0599042 C15.9830125,19.8102833 15.7808833,19.6081542 15.5312625,19.6081542 L15.5312625,19.6081542 Z M15.0800917,29.7233 L10.9257292,29.7233 L10.9257292,20.511075 L15.0795125,20.511075 L15.0795125,29.7233 L15.0800917,29.7233 Z" id="Shape" fill="#BE4459"></path>
                    <path d="M25.64525,19.6081542 L20.5885458,19.6081542 C20.3383458,19.6081542 20.1367958,19.8102833 20.1367958,20.0599042 L20.1367958,30.1744708 C20.1367958,30.4235125 20.3383458,30.6256417 20.5885458,30.6256417 L25.64525,30.6256417 C25.8942917,30.6256417 26.0964208,30.4229333 26.0964208,30.1744708 L26.0964208,20.0599042 C26.097,19.8102833 25.8942917,19.6081542 25.64525,19.6081542 L25.64525,19.6081542 Z M25.1929208,29.7233 L21.0402958,29.7233 L21.0402958,20.511075 L25.1929208,20.511075 L25.1929208,29.7233 L25.1929208,29.7233 Z" id="Shape" fill="#BE4459"></path>
                    <path d="M15.5312625,34.779425 L10.4739792,34.779425 C10.2249375,34.779425 10.0228083,34.9821333 10.0228083,35.2305958 L10.0228083,45.3457417 C10.0228083,45.5947833 10.2249375,45.7969125 10.4739792,45.7969125 L15.5312625,45.7969125 C15.7808833,45.7969125 15.9824333,45.5942042 15.9824333,45.3457417 L15.9824333,35.2305958 C15.9830125,34.9821333 15.7808833,34.779425 15.5312625,34.779425 L15.5312625,34.779425 Z M15.0800917,44.8934125 L10.9257292,44.8934125 L10.9257292,35.6835042 L15.0795125,35.6835042 L15.0795125,44.8934125 L15.0800917,44.8934125 Z" id="Shape" fill="#BE4459"></path>
                    <path d="M25.64525,34.779425 L20.5885458,34.779425 C20.3383458,34.779425 20.1367958,34.9821333 20.1367958,35.2305958 L20.1367958,45.3457417 C20.1367958,45.5947833 20.3383458,45.7969125 20.5885458,45.7969125 L25.64525,45.7969125 C25.8942917,45.7969125 26.0964208,45.5942042 26.0964208,45.3457417 L26.0964208,35.2305958 C26.097,34.9821333 25.8942917,34.779425 25.64525,34.779425 L25.64525,34.779425 Z M25.1929208,44.8934125 L21.0402958,44.8934125 L21.0402958,35.6835042 L25.1929208,35.6835042 L25.1929208,44.8934125 L25.1929208,44.8934125 Z" id="Shape" fill="#BE4459"></path>
                    <path d="M35.7592375,34.779425 L30.7019542,34.779425 C30.4529125,34.779425 30.2507833,34.9821333 30.2507833,35.2305958 L30.2507833,45.3457417 C30.2507833,45.5947833 30.4534917,45.7969125 30.7019542,45.7969125 L35.7592375,45.7969125 C36.0094375,45.7969125 36.2104083,45.5942042 36.2104083,45.3457417 L36.2104083,35.2305958 C36.2104083,34.9821333 36.0094375,34.779425 35.7592375,34.779425 L35.7592375,34.779425 Z M35.3080667,44.8934125 L31.1542833,44.8934125 L31.1542833,35.6835042 L35.3080667,35.6835042 L35.3080667,44.8934125 L35.3080667,44.8934125 Z" id="Shape" fill="#BE4459"></path>
                    <polyline id="Path-2" stroke="#BE4459" points="46.1894531 50.9921875 0.519250619 50.9921875 0.519250619 45.6533254 5.86610752 45.6533254 5.86610752 0.157788508 31.0597656 0.157788508 31.0597656 29.4108371 41.0866102 29.4108371 41.0866102 44.4376866 46.2407227 44.4575195 46.2404175 51.4621582"></polyline>
                </g>
            </g>
        </g>
    </g>
</svg>