<?xml version="1.0" encoding="UTF-8" standalone="no"?>
<svg width="29px" height="44px" viewBox="0 0 29 44" version="1.1" xmlns="http://www.w3.org/2000/svg" xmlns:xlink="http://www.w3.org/1999/xlink">
    <!-- Generator: Sketch 39.1 (31720) - http://www.bohemiancoding.com/sketch -->
    <title>Cultural</title>
    <desc>Created with Sketch.</desc>
    <defs></defs>
    <g id="Symbols" stroke="none" stroke-width="1" fill="none" fill-rule="evenodd">
        <g id="navbar2" transform="translate(-363.000000, -38.000000)" stroke="#BE4459" fill="#BE4459">
            <g id="Cultural" transform="translate(364.000000, 39.000000)">
                <path d="M8.77630303,3.783948 L18.5177576,3.783948 L20.6966667,0.548268 L6.59739394,0.548268 L8.77630303,3.783948 Z M23.5331515,5.568108 C22.2035758,5.568108 20.5541212,6.392148 18.6314545,8.017548 L18.3769091,8.232588 L18.3769091,10.742508 L18.8181212,10.928148 C18.859697,10.945788 23.1097576,12.792108 23.9022424,16.619988 C23.9675758,16.934988 24.0269697,17.271828 24.0787273,17.621268 L24.4766667,20.315988 L25.4719394,17.776668 C26.1142424,16.137828 26.5444242,14.368788 26.7158182,12.661908 C27.0195758,9.660588 26.4773939,7.238028 25.2674545,6.182148 C24.8084242,5.780628 24.2085455,5.568108 23.5331515,5.568108 L23.5331515,5.568108 Z M3.75072727,5.559708 C3.07957576,5.559708 2.49836364,5.768868 2.02490909,6.182988 C0.815818182,7.238868 0.274484848,9.661428 0.577393939,12.661908 C0.749636364,14.367948 1.17981818,16.136988 1.82212121,17.776668 L2.81739394,20.318508 L3.21533333,17.621268 C3.26624242,17.272668 3.32563636,16.935828 3.39181818,16.620828 C4.18430303,12.792108 8.43266667,10.945788 8.47593939,10.928148 L8.91460606,10.741668 L8.91545455,10.267908 L8.91545455,8.232588 L8.66090909,8.017548 C6.72636364,6.386268 5.07436364,5.559708 3.75072727,5.559708 L3.75072727,5.559708 Z M19.2864848,27.189708 L23.2531515,27.189708 L23.3753333,26.621868 C23.7376364,24.941028 23.9370303,23.105628 23.952303,21.313068 C23.9641818,19.645668 23.8216364,18.047988 23.5407879,16.692228 C22.7958182,13.093668 18.8461212,11.338908 18.6781212,11.266668 L18.0010303,10.986948 L18.0086667,10.275468 L18.0086667,4.149348 L9.28539394,4.149348 L9.28539394,10.990308 L8.61593939,11.266668 C8.44793939,11.338908 4.49824242,13.092828 3.75242424,16.692228 C3.46987879,18.057228 3.32818182,19.654908 3.34175758,21.313068 C3.3570303,23.105628 3.55642424,24.941868 3.91872727,26.621868 L4.04090909,27.189708 L6.18757576,27.189708 L6.18757576,19.987548 L12.0132727,19.987548 L12.0132727,23.953188 L10.1932727,23.953188 L10.1932727,27.189708 L15.2807879,27.189708 L15.2807879,19.987548 L21.1047879,19.987548 L21.1047879,23.953188 L19.2864848,23.953188 L19.2864848,27.189708 Z M9.10042424,36.973188 L6.34709091,41.064828 L7.49763636,41.217708 C9.36430303,41.466348 11.4329091,41.591508 13.6466061,41.591508 C15.8611515,41.591508 17.9306061,41.466348 19.7964242,41.217708 L20.9469697,41.064828 L18.1919394,36.974028 L17.627697,36.134868 L18.4337576,35.516628 C19.6657576,34.573308 20.7229697,33.285588 21.5782424,31.689588 C22.0932727,30.724428 22.5361818,29.645028 22.8933939,28.480788 L23.1784848,27.554268 L18.9182424,27.554268 L18.9182424,23.588628 L20.7365455,23.588628 L20.7365455,20.352948 L15.6490303,20.352948 L15.6490303,27.554268 L9.8250303,27.554268 L9.8250303,23.588628 L11.6433333,23.588628 L11.6433333,20.352948 L6.55751515,20.352948 L6.55751515,27.554268 L4.11557576,27.554268 L4.39981818,28.480788 C4.75957576,29.651748 5.20248485,30.731148 5.71581818,31.690428 C6.57024242,33.285588 7.62830303,34.573308 8.86030303,35.517468 L9.66636364,36.134868 L9.10042424,36.973188 Z M13.6466061,41.957748 C9.74357576,41.957748 7.07424242,41.564628 5.74127273,41.305908 L9.16830303,36.215508 L8.63460606,35.806428 C6.72890909,34.345668 5.26018182,32.145708 4.26830303,29.265348 C3.19581818,26.151468 2.97181818,23.095548 2.97351515,21.079548 L2.97351515,20.875428 L2.86575758,20.702388 C1.46321212,18.449508 0.495090909,15.531348 0.21,12.698028 C-0.103939394,9.580788 0.483212121,7.042308 1.78139394,5.908308 C2.32527273,5.433708 2.98369697,5.193468 3.738,5.193468 C4.06212121,5.193468 4.40660606,5.237988 4.7629697,5.327028 C5.65981818,5.550468 6.66951515,6.063708 7.76406061,6.851628 L8.91545455,7.679868 L8.91545455,4.649148 L5.90842424,0.183708 L21.3847879,0.183708 L18.3769091,4.649148 L18.3769091,7.679028 L19.5274545,6.851628 C20.6253939,6.062868 21.6350909,5.550468 22.5302424,5.327868 C22.8874545,5.237988 23.2319394,5.193468 23.5552121,5.193468 C24.3103636,5.193468 24.9687879,5.433708 25.5126667,5.909148 C26.8108485,7.042308 27.398,9.580788 27.0840606,12.697188 C26.7981212,15.533028 25.83,18.451188 24.428303,20.702388 L24.3205455,20.875428 L24.3205455,21.079548 C24.3222424,23.095548 24.0982424,26.151468 23.0257576,29.265348 C22.0338788,32.145708 20.564303,34.345668 18.6586061,35.806428 L18.1240606,36.215508 L21.5519394,41.305068 C20.2138788,41.563788 17.5360606,41.957748 13.6466061,41.957748 L13.6466061,41.957748 Z" id="Fill-1"></path>
            </g>
        </g>
    </g>
</svg>