<?xml version="1.0" encoding="UTF-8" standalone="no"?>
<svg width="54px" height="41px" viewBox="0 0 54 41" version="1.1" xmlns="http://www.w3.org/2000/svg" xmlns:xlink="http://www.w3.org/1999/xlink">
    <!-- Generator: Sketch 40.3 (33839) - http://www.bohemiancoding.com/sketch -->
    <title>Fill 1</title>
    <desc>Created with Sketch.</desc>
    <defs></defs>
    <g id="Page-1" stroke="none" stroke-width="1" fill="none" fill-rule="evenodd">
        <g id="Artboard" transform="translate(-308.000000, -42.000000)" fill="#BE4459">
            <g id="EDUCATIONAL" transform="translate(284.000000, 42.000000)">
                <path d="M25.395637,4.08062786 C27.4749307,3.07225518 29.6729809,2.37770465 31.9547099,1.93803504 L31.9547099,20.2508316 L37.9550783,15.2336598 L43.4622484,20.3101711 L43.4622484,2.01888009 C47.5959013,2.83131305 50.3594179,4.16625193 50.5428353,4.25625675 L50.5428353,39.9638803 C46.7058622,38.1944491 42.5540366,37.2884271 38.1841388,37.2884271 C32.2729433,37.2884271 27.5311393,38.9136912 25.3973274,39.7930305 L25.3973274,4.08062786 L25.395637,4.08062786 Z M42.6364476,1.86634978 L42.6364476,18.4642756 L37.9829713,14.1727179 L32.7792429,18.5232168 L32.7792429,1.80103654 C34.2567248,1.56328042 35.7604092,1.40198859 37.3072008,1.40198859 C39.2216725,1.40198859 41.0186557,1.58837027 42.6364476,1.86634978 L42.6364476,1.86634978 Z M76.510763,4.08062786 L76.510763,39.7946235 C74.3769512,38.9152843 69.6368377,37.2900201 63.7239517,37.2900201 C59.352786,37.2900201 55.2022283,38.1956439 51.3652552,39.9654733 L51.3652552,4.25625675 C51.6293931,4.12563028 57.2553196,1.40198859 64.5991992,1.40198859 C68.8435787,1.40198859 72.8487548,2.30323163 76.510763,4.08062786 L76.510763,4.08062786 Z M50.9532,41.0236275 C55.4017053,38.8065616 59.8159783,38.0670087 63.7239517,38.0670087 C71.5411665,38.0670087 77.335296,41.0236275 77.335296,41.0236275 L77.335296,3.61148765 C72.9260944,1.37092497 68.5152024,0.625 64.5991992,0.625 C56.7984666,0.625 50.9532,3.58201704 50.9532,3.58201704 C50.9532,3.58201704 45.1062429,0.625 37.3072008,0.625 C33.3911976,0.625 28.9819961,1.37092497 24.571104,3.61148765 L24.571104,41.0236275 C24.571104,41.0236275 30.3652335,38.0670087 38.1828709,38.0670087 C42.0904217,38.0670087 46.5046947,38.8049686 50.9532,41.0236275 L50.9532,41.0236275 Z" id="Fill-1"></path>
            </g>
        </g>
    </g>
</svg>