<?xml version="1.0" encoding="utf-8"?>
<!-- Generator: Adobe Illustrator 17.1.0, SVG Export Plug-In . SVG Version: 6.00 Build 0)  -->
<!DOCTYPE svg PUBLIC "-//W3C//DTD SVG 1.1//EN" "http://www.w3.org/Graphics/SVG/1.1/DTD/svg11.dtd">
<svg version="1.1" id="Layer_1" xmlns="http://www.w3.org/2000/svg" xmlns:xlink="http://www.w3.org/1999/xlink" x="0px" y="0px"
	 viewBox="0 0 33 42" enable-background="new 0 0 33 42" xml:space="preserve">
<title>General Buildings</title>
<desc>Created with Sketch.</desc>
<g id="Option2">
	<g id="main-screen-copy" transform="translate(-365.000000, -657.000000)">
		<g id="General-Buildings" transform="translate(365.000000, 657.000000)">
			<path id="Shape" fill="#BE4459" d="M32.6,41.1H0V0.2l16.3,7.2l16.3-7.2V41.1L32.6,41.1z M1.7,39.4h29.1V2.8L16.3,9.4L1.7,2.8
				V39.4L1.7,39.4z"/>
			<rect id="Rectangle-path" x="24.7" y="12.4" fill="#BE4459" width="1.7" height="4.3"/>
			<rect id="Rectangle-path_1_" x="18.5" y="12.4" fill="#BE4459" width="1.7" height="4.3"/>
			<rect id="Rectangle-path_2_" x="12.3" y="12.4" fill="#BE4459" width="1.7" height="4.3"/>
			<rect id="Rectangle-path_3_" x="6.2" y="12.4" fill="#BE4459" width="1.7" height="4.3"/>
			<rect id="Rectangle-path_4_" x="24.7" y="23.1" fill="#BE4459" width="1.7" height="4.3"/>
			<rect id="Rectangle-path_5_" x="18.5" y="23.1" fill="#BE4459" width="1.7" height="4.3"/>
			<rect id="Rectangle-path_6_" x="12.3" y="23.1" fill="#BE4459" width="1.7" height="4.3"/>
			<rect id="Rectangle-path_7_" x="6.2" y="23.1" fill="#BE4459" width="1.7" height="4.3"/>
			<path id="Shape_1_" fill="#BE4459" d="M19.7,41.1h-6.9V30.8h6.9V41.1L19.7,41.1z M14.6,39.4H18v-6.9h-3.4V39.4L14.6,39.4z"/>
		</g>
	</g>
</g>
</svg>
