<?xml version="1.0" encoding="utf-8"?>
<!-- Generator: Adobe Illustrator 17.1.0, SVG Export Plug-In . SVG Version: 6.00 Build 0)  -->
<!DOCTYPE svg PUBLIC "-//W3C//DTD SVG 1.1//EN" "http://www.w3.org/Graphics/SVG/1.1/DTD/svg11.dtd">
<svg version="1.1" id="Layer_1" xmlns="http://www.w3.org/2000/svg" xmlns:xlink="http://www.w3.org/1999/xlink" x="0px" y="0px"
	 viewBox="0 0 61 48" enable-background="new 0 0 61 48" xml:space="preserve">
<title>HOUSING CONDITIONS</title>
<desc>Created with Sketch.</desc>
<g id="Option2">
	<g id="main-screen-copy" transform="translate(-495.000000, -650.000000)">
		<g id="HOUSING-CONDITIONS" transform="translate(496.000000, 651.000000)">
			<polygon id="Shape" fill="none" stroke="#BE4459" points="16,46 16,23 43,23 43,46 34,46 34,34.5 25,34.5 25,46 			"/>
			<polygon id="Shape_1_" fill="none" stroke="#BE4459" points="30,21.9 12,21.9 30,14 48,22 			"/>
			<rect id="Rectangle-path" x="26" y="35" fill="none" stroke="#BE4459" width="3" height="10"/>
			<rect id="Rectangle-path_1_" x="30" y="35" fill="none" stroke="#BE4459" width="3" height="10"/>
			<polyline id="Shape_2_" fill="none" stroke="#BE4459" points="21,22 30,14 39,22 			"/>
			<ellipse id="Oval" fill="none" stroke="#BE4459" cx="28.2" cy="39.2" rx="0.2" ry="0.2"/>
			<ellipse id="Oval_1_" fill="none" stroke="#BE4459" cx="31.2" cy="39.2" rx="0.2" ry="0.2"/>
			<path id="Oval-5" fill="none" stroke="#BE4459" d="M51,29.9C51,17.8,41.4,8,29.5,8S8,17.8,8,29.9"/>
			<path id="Oval-5_1_" fill="none" stroke="#BE4459" d="M55,29.8C55,15.6,43.6,4,29.5,4S4,15.6,4,29.8"/>
			<path id="Oval-5-Copy" fill="none" stroke="#BE4459" d="M59,29.8C59,13.3,45.8,0,29.5,0S0,13.3,0,29.8"/>
		</g>
	</g>
</g>
</svg>
