<?xml version="1.0" encoding="UTF-8" standalone="no"?>
<svg width="39px" height="50px" viewBox="0 0 39 50" version="1.1" xmlns="http://www.w3.org/2000/svg" xmlns:xlink="http://www.w3.org/1999/xlink">
    <!-- Generator: Sketch 40.3 (33839) - http://www.bohemiancoding.com/sketch -->
    <title>Icon</title>
    <desc>Created with Sketch.</desc>
    <defs>
        <polygon id="path-1" points="0.616680235 0.407434846 0.616680235 49.6565157 38.0171196 49.6565157 38.0171196 0.407434846"></polygon>
    </defs>
    <g id="Page-1" stroke="none" stroke-width="1" fill="none" fill-rule="evenodd">
        <g id="Artboard" transform="translate(-47.000000, -35.000000)">
            <g id="INSTITUTIONAL" transform="translate(15.000000, 35.000000)">
                <g id="Icon" transform="translate(32.000000, 0.000000)">
                    <path d="M5.37288784,24.2992502 C5.08910117,24.3110208 4.86846274,24.5502311 4.88063589,24.8334864 C4.89242864,25.1167417 5.13208762,25.336967 5.41587429,25.3248166 L9.46230703,25.3248166 C9.7460937,25.3286136 9.97890528,25.1019334 9.98270939,24.8186781 C9.98651351,24.5354228 9.75940809,24.3030471 9.47562142,24.2992502 L9.46230703,24.2992502 L5.41587429,24.2992502 C5.40141867,24.2984908 5.38734346,24.2984908 5.37288784,24.2992502" id="Fill-1" fill="#BE4459"></path>
                    <path d="M5.3768862,28.5627254 C5.09309953,28.5725975 4.87093945,28.8099093 4.88044973,29.0935443 C4.89034042,29.3767996 5.12847776,29.5985437 5.41226443,29.5886715 C5.4145469,29.5886715 5.41720977,29.5886715 5.41987265,29.5882918 L9.46630539,29.5882918 C9.75009206,29.5928482 9.98366446,29.3669274 9.9882294,29.0836721 C9.99279433,28.8004168 9.76644973,28.5672817 9.48266306,28.5627254 L9.46630539,28.5627254 L5.41987265,28.5627254 C5.40541703,28.561966 5.39134182,28.561966 5.3768862,28.5627254" id="Fill-3" fill="#BE4459"></path>
                    <path d="M5.37288784,32.1156214 C5.08910117,32.127392 4.86846274,32.3666023 4.88063589,32.6498576 C4.89242864,32.9331129 5.13208762,33.1533382 5.41587429,33.1411878 L9.46230703,33.1411878 C9.7460937,33.1449848 9.97890528,32.9183046 9.98270939,32.6350493 C9.98651351,32.351794 9.75940809,32.1194184 9.47562142,32.1156214 L9.46230703,32.1156214 L5.41587429,32.1156214 C5.40141867,32.114862 5.38734346,32.114862 5.37288784,32.1156214" id="Fill-5" fill="#BE4459"></path>
                    <path d="M5.3768862,36.3790966 C5.09309953,36.3889687 4.87093945,36.6262805 4.88044973,36.9095358 C4.89034042,37.1931708 5.12847776,37.4149149 5.41226443,37.4050427 C5.4145469,37.4050427 5.41720977,37.4050427 5.41987265,37.4046631 L9.46630539,37.4046631 C9.75009206,37.4092194 9.98366446,37.1832986 9.9882294,36.9000433 C9.99279433,36.616788 9.76644973,36.383653 9.48266306,36.3790966 L9.46630539,36.3790966 L5.41987265,36.3790966 C5.40541703,36.3783372 5.39134182,36.3783372 5.3768862,36.3790966" id="Fill-7" fill="#BE4459"></path>
                    <path d="M5.37323934,40.6425718 C5.08945267,40.6543424 4.86881424,40.8935527 4.88060698,41.176808 C4.89278014,41.4600633 5.13243912,41.6802886 5.41622579,41.668518 L9.46265853,41.668518 C9.7464452,41.6711758 9.97849596,41.4437363 9.98115884,41.1604809 C9.98382172,40.8772256 9.75595548,40.6452297 9.47216881,40.6425718 L9.46265853,40.6425718 L5.41622579,40.6425718 C5.40177017,40.6418124 5.38769496,40.6418124 5.37323934,40.6425718" id="Fill-9" fill="#BE4459"></path>
                    <path d="M5.3768862,44.1954678 C5.09309953,44.2049602 4.87093945,44.4426517 4.88044973,44.725907 C4.89034042,45.009542 5.12809735,45.2312861 5.41226443,45.221414 C5.4145469,45.221414 5.41720977,45.221414 5.41987265,45.2210343 L9.46630539,45.2210343 C9.75009206,45.2255906 9.98366446,44.9996699 9.9882294,44.7164145 C9.99279433,44.4331592 9.76644973,44.2000242 9.48266306,44.1954678 L9.46630539,44.1954678 L5.41987265,44.1954678 C5.40541703,44.1947084 5.39134182,44.1947084 5.3768862,44.1954678" id="Fill-11" fill="#BE4459"></path>
                    <path d="M5.3768862,48.458943 C5.09309953,48.4684354 4.87093945,48.7061269 4.88044973,48.9897619 C4.89034042,49.2730172 5.12847776,49.4947613 5.41226443,49.4848892 C5.4145469,49.4848892 5.41720977,49.4848892 5.41987265,49.4845095 L9.46630539,49.4845095 C9.75009206,49.4890658 9.98366446,49.2631451 9.9882294,48.9798897 C9.99279433,48.6966344 9.76644973,48.4634994 9.48266306,48.458943 L9.46630539,48.458943 L5.41987265,48.458943 C5.40541703,48.4581836 5.39134182,48.4581836 5.3768862,48.458943" id="Fill-13" fill="#BE4459"></path>
                    <mask id="mask-2" fill="white">
                        <use xlink:href="#path-1"></use>
                    </mask>
                    <g id="Clip-16"></g>
                    <path d="M25.8938557,25.5427366 L36.9839802,25.5427366 L36.9839802,48.6219694 L25.8938557,48.6219694 L25.8938557,25.5427366 Z M1.65824579,13.490337 L12.7483702,13.490337 C12.7460877,25.1998686 12.7483702,36.9075017 12.7483702,48.6219694 L1.65824579,48.6219694 C1.65976744,36.9097799 1.65824579,25.1922746 1.65824579,13.490337 L1.65824579,13.490337 Z M13.7758606,1.43793742 L24.8663654,1.43793742 C24.8576159,17.1859455 24.8663654,32.8826943 24.8663654,48.6219694 L13.7758606,48.6219694 C13.782708,31.0548243 13.7758606,18.3197262 13.7758606,1.43793742 L13.7758606,1.43793742 Z M13.1550297,0.411991232 C13.0857949,0.426799485 13.0199837,0.456036294 12.9625417,0.497423464 C12.9549334,0.504258043 12.948086,0.51147232 12.9408582,0.519066296 C12.9260222,0.532355754 12.9115666,0.546784309 12.8982522,0.561592563 C12.8834162,0.567667744 12.8693409,0.57526172 12.8552657,0.582855696 L12.8552657,0.604498528 C12.8480379,0.611333107 12.8408101,0.618167685 12.8339627,0.625761662 L12.8339627,0.647024795 C12.7951608,0.697904435 12.7658691,0.756378052 12.7483702,0.817889259 C12.7479898,0.825103537 12.7479898,0.832317814 12.7483702,0.839152393 C12.7301105,0.916231251 12.7301105,0.997486796 12.7483702,1.07418596 L12.7483702,12.4643908 L1.18691645,12.4643908 C1.13746301,12.4571766 1.08686834,12.4571766 1.03703449,12.4643908 C0.968180079,12.4791991 0.90198855,12.5084359 0.844546476,12.5498231 C0.837318665,12.5566577 0.830090855,12.5638719 0.823243455,12.5710862 C0.808027012,12.5843757 0.79357139,12.5988042 0.780257002,12.6139922 C0.765801381,12.6200674 0.75134576,12.6276613 0.737650961,12.6352553 C0.737270549,12.6424696 0.737270549,12.6493042 0.737650961,12.6565184 C0.730042739,12.663353 0.722814928,12.6705673 0.715967529,12.6777816 L0.715967529,12.6990447 C0.677165598,12.750304 0.647873944,12.808398 0.630375034,12.8702889 L0.630375034,12.891552 C0.612115302,12.9686309 0.612115302,13.0495067 0.630375034,13.1265856 C0.629233801,25.1281055 0.630375034,37.1262082 0.630375034,49.1345628 C0.630375034,49.4030098 0.875359774,49.6471562 1.14431041,49.6471562 C13.2223624,49.6547501 25.2745465,49.6471562 37.3480336,49.6471562 L37.4123231,49.6471562 C37.4758517,49.6596862 37.5416628,49.6596862 37.6048111,49.6471562 C37.6341027,49.6403216 37.6626335,49.6357652 37.690784,49.625893 C37.7124674,49.6190584 37.7337704,49.6129833 37.754693,49.6050096 C37.7699095,49.5909607 37.7843651,49.5772916 37.7976795,49.5624833 C37.8121351,49.5556487 37.8265907,49.5488142 37.8402855,49.5412202 C37.8482742,49.527551 37.855502,49.5131225 37.861969,49.4986939 C37.8764246,49.4918593 37.8908802,49.4850248 37.904575,49.4774308 C37.930443,49.4447767 37.9521264,49.4087053 37.9688645,49.3707354 C37.9783748,49.3426377 37.9856026,49.31454 37.9901675,49.2853032 C37.9981561,49.271634 38.0053839,49.2572055 38.0118509,49.2427769 C38.0129922,49.2215138 38.0129922,49.2002507 38.0118509,49.1786078 C38.0190787,49.129247 38.0190787,49.0783673 38.0118509,49.0290065 L38.0118509,25.0309026 C38.0118509,24.7620759 37.7668662,24.5179295 37.4979155,24.5179295 L25.8938557,24.5179295 L25.8938557,1.03279879 C25.8976599,0.997107097 25.8976599,0.961415409 25.8938557,0.925723721 C25.8976599,0.890411732 25.8976599,0.854340345 25.8938557,0.819028356 C25.875596,0.740810401 25.8386961,0.666769133 25.7869602,0.605257926 L25.7652768,0.605257926 C25.7055523,0.52741967 25.6226226,0.467427258 25.5298023,0.434393462 C25.4951849,0.423382196 25.4590459,0.416167919 25.4229068,0.413130328 C25.4084512,0.412370931 25.394376,0.412370931 25.3799204,0.413130328 L13.3049116,0.413130328 C13.2554582,0.405536352 13.2048635,0.405536352 13.1550297,0.413130328 L13.1550297,0.411991232 Z" id="Fill-15" fill="#BE4459" mask="url(#mask-2)"></path>
                    <path d="M17.4426382,4.40360209 C17.1588515,4.42144793 16.9431585,4.66521457 16.9610378,4.94846988 C16.9785367,5.23172519 17.223141,5.44701442 17.5069277,5.42916857 L21.5320574,5.42916857 C21.8158441,5.43296556 22.0486557,5.20628537 22.0524598,4.92340976 C22.0562639,4.63977475 21.8291585,4.40739908 21.5453718,4.40360209 L21.5320574,4.40360209 L17.5069277,4.40360209 C17.4856247,4.40208329 17.4639412,4.40208329 17.4426382,4.40360209" id="Fill-18" fill="#BE4459" mask="url(#mask-2)"></path>
                    <path d="M17.4426382,7.95649809 C17.1588515,7.97434393 16.9431585,8.21811057 16.9610378,8.50136588 C16.9785367,8.78462119 17.223141,8.99991042 17.5069277,8.98244427 L21.5320574,8.98244427 C21.8158441,8.98586156 22.0486557,8.75918137 22.0524598,8.47630576 C22.0562639,8.19267075 21.8291585,7.96029508 21.5453718,7.95649809 L21.5320574,7.95649809 L17.5069277,7.95649809 C17.4856247,7.9549793 17.4639412,7.9549793 17.4426382,7.95649809" id="Fill-20" fill="#BE4459" mask="url(#mask-2)"></path>
                    <path d="M17.4426382,12.2199733 C17.1588515,12.2378191 16.9431585,12.4815858 16.9610378,12.7648411 C16.9785367,13.0480964 17.223141,13.2633856 17.5069277,13.2455398 L21.5320574,13.2455398 C21.8158441,13.2493368 22.0486557,13.0226566 22.0524598,12.7394013 C22.0562639,12.456146 21.8291585,12.2237703 21.5453718,12.2199733 L21.5320574,12.2199733 L17.5069277,12.2199733 C17.4856247,12.2184545 17.4639412,12.2184545 17.4426382,12.2199733" id="Fill-22" fill="#BE4459" mask="url(#mask-2)"></path>
                    <path d="M17.4426382,16.4834485 C17.1588515,16.5012943 16.9431585,16.745061 16.9610378,17.0283163 C16.9785367,17.3115716 17.223141,17.5268608 17.5069277,17.509015 L21.5320574,17.509015 C21.8158441,17.512812 22.0486557,17.2861318 22.0524598,17.0032562 C22.0562639,16.7196212 21.8291585,16.4872455 21.5453718,16.4834485 L21.5320574,16.4834485 L17.5069277,16.4834485 C17.4856247,16.4819297 17.4639412,16.4819297 17.4426382,16.4834485" id="Fill-24" fill="#BE4459" mask="url(#mask-2)"></path>
                    <path d="M17.4426382,20.0363445 C17.1588515,20.0541903 16.9431585,20.297957 16.9610378,20.5812123 C16.9785367,20.8644676 17.223141,21.0797568 17.5069277,21.061911 L21.5320574,21.061911 C21.8158441,21.065708 22.0486557,20.8390278 22.0524598,20.5557725 C22.0562639,20.2725172 21.8291585,20.0401415 21.5453718,20.0363445 L21.5320574,20.0363445 L17.5069277,20.0363445 C17.4856247,20.0348257 17.4639412,20.0348257 17.4426382,20.0363445" id="Fill-26" fill="#BE4459" mask="url(#mask-2)"></path>
                    <path d="M17.4426382,24.2998197 C17.1588515,24.3176655 16.9431585,24.5614322 16.9610378,24.8446875 C16.9785367,25.1279428 17.223141,25.343232 17.5069277,25.3253862 L21.5320574,25.3253862 C21.8158441,25.3291832 22.0486557,25.102503 22.0524598,24.8192477 C22.0562639,24.5359924 21.8291585,24.3036167 21.5453718,24.2998197 L21.5320574,24.2998197 L17.5069277,24.2998197 C17.4856247,24.2983009 17.4639412,24.2983009 17.4426382,24.2998197" id="Fill-28" fill="#BE4459" mask="url(#mask-2)"></path>
                    <path d="M17.4465756,28.5632949 C17.1627889,28.5788626 16.9451937,28.8214901 16.9607906,29.1047454 C16.9763875,29.3880007 17.2194701,29.6051884 17.5032568,29.5896208 C17.5059197,29.5892411 17.5082022,29.5892411 17.510865,29.5888614 L21.5359947,29.5888614 C21.8197814,29.5934178 22.0533538,29.367497 22.0579188,29.0842417 C22.0624837,28.8009864 21.8361391,28.5678513 21.5523524,28.5632949 L21.5359947,28.5632949 L17.510865,28.5632949 C17.489562,28.5617761 17.4678786,28.5617761 17.4465756,28.5632949" id="Fill-30" fill="#BE4459" mask="url(#mask-2)"></path>
                    <path d="M17.4426382,32.1161909 C17.1588515,32.1340368 16.9431585,32.3778034 16.9610378,32.6610587 C16.9785367,32.944314 17.223141,33.1596032 17.5069277,33.1417574 L21.5320574,33.1417574 C21.8158441,33.1455544 22.0486557,32.9188742 22.0524598,32.6356189 C22.0562639,32.3523636 21.8291585,32.1199879 21.5453718,32.1161909 L21.5320574,32.1161909 L17.5069277,32.1161909 C17.4856247,32.1146721 17.4639412,32.1146721 17.4426382,32.1161909" id="Fill-32" fill="#BE4459" mask="url(#mask-2)"></path>
                    <path d="M17.4465756,36.3796661 C17.1627889,36.3952338 16.9451937,36.6378613 16.9607906,36.9211166 C16.9763875,37.2043719 17.2194701,37.4215596 17.5032568,37.405992 C17.5059197,37.4056123 17.5082022,37.4056123 17.510865,37.4052326 L21.5359947,37.4052326 C21.8197814,37.409789 22.0533538,37.1838682 22.0579188,36.9006129 C22.0624837,36.6173576 21.8361391,36.3842225 21.5523524,36.3796661 L21.5359947,36.3796661 L17.510865,36.3796661 C17.489562,36.3781473 17.4678786,36.3781473 17.4465756,36.3796661" id="Fill-34" fill="#BE4459" mask="url(#mask-2)"></path>
                    <path d="M17.4426382,40.6431413 C17.1588515,40.6609872 16.9431585,40.9047538 16.9610378,41.1880091 C16.9785367,41.4712644 17.223141,41.6865536 17.5069277,41.6690875 L21.5320574,41.6690875 C21.8158441,41.6717454 22.0478948,41.4443058 22.0505577,41.1610505 C22.0532206,40.8777952 21.8253544,40.6457992 21.5415677,40.6431413 L21.5320574,40.6431413 L17.5069277,40.6431413 C17.4856247,40.6416225 17.4639412,40.6416225 17.4426382,40.6431413" id="Fill-36" fill="#BE4459" mask="url(#mask-2)"></path>
                    <path d="M29.5224846,40.6431413 C29.238698,40.6609872 29.0230049,40.9047538 29.0408842,41.1880091 C29.0583831,41.4712644 29.3029874,41.6865536 29.5867741,41.6690875 L33.6119038,41.6690875 C33.8956905,41.6717454 34.1277412,41.4443058 34.1304041,41.1610505 C34.133067,40.8777952 33.9052008,40.6457992 33.6214141,40.6431413 L33.6119038,40.6431413 L29.5867741,40.6431413 C29.5654711,40.6416225 29.5437876,40.6416225 29.5224846,40.6431413" id="Fill-38" fill="#BE4459" mask="url(#mask-2)"></path>
                    <path d="M29.526422,36.3796661 C29.2426353,36.3952338 29.0250402,36.6378613 29.040637,36.9211166 C29.0562339,37.2043719 29.2993165,37.4215596 29.5831032,37.405992 C29.5857661,37.4056123 29.5880486,37.4056123 29.5907114,37.4052326 L33.6158412,37.4052326 C33.8996278,37.409789 34.1332002,37.1838682 34.1377652,36.9006129 C34.1423301,36.6173576 33.9159855,36.3842225 33.6321988,36.3796661 L33.6158412,36.3796661 L29.5907114,36.3796661 C29.5694084,36.3781473 29.547725,36.3781473 29.526422,36.3796661" id="Fill-40" fill="#BE4459" mask="url(#mask-2)"></path>
                    <path d="M29.5224846,32.1161909 C29.238698,32.1340368 29.0230049,32.3778034 29.0408842,32.6610587 C29.0583831,32.944314 29.3029874,33.1596032 29.5867741,33.1417574 L33.6119038,33.1417574 C33.8956905,33.1455544 34.1285021,32.9188742 34.1323062,32.6356189 C34.1361103,32.3523636 33.9090049,32.1199879 33.6252182,32.1161909 L33.6119038,32.1161909 L29.5867741,32.1161909 C29.5654711,32.1146721 29.5437876,32.1146721 29.5224846,32.1161909" id="Fill-42" fill="#BE4459" mask="url(#mask-2)"></path>
                    <path d="M29.526422,28.5632949 C29.2426353,28.5788626 29.0250402,28.8214901 29.040637,29.1047454 C29.0562339,29.3880007 29.2993165,29.6051884 29.5831032,29.5896208 C29.5857661,29.5892411 29.5880486,29.5892411 29.5907114,29.5888614 L33.6158412,29.5888614 C33.8996278,29.5934178 34.1332002,29.367497 34.1377652,29.0842417 C34.1423301,28.8009864 33.9159855,28.5678513 33.6321988,28.5632949 L33.6158412,28.5632949 L29.5907114,28.5632949 C29.5694084,28.5617761 29.547725,28.5617761 29.526422,28.5632949" id="Fill-44" fill="#BE4459" mask="url(#mask-2)"></path>
                    <path d="M29.526422,44.1960373 C29.2426353,44.211605 29.0250402,44.4542325 29.040637,44.7374878 C29.0562339,45.0207431 29.2993165,45.2379309 29.5831032,45.2223632 C29.5857661,45.2219835 29.5880486,45.2219835 29.5907114,45.2216038 L33.6158412,45.2216038 C33.8996278,45.2261602 34.1332002,45.0002394 34.1377652,44.7169841 C34.1423301,44.4337288 33.9159855,44.2005937 33.6321988,44.1960373 L33.6158412,44.1960373 L29.5907114,44.1960373 C29.5694084,44.1945185 29.547725,44.1945185 29.526422,44.1960373" id="Fill-46" fill="#BE4459" mask="url(#mask-2)"></path>
                    <path d="M17.4465756,44.1960373 C17.1627889,44.211605 16.9451937,44.4542325 16.9607906,44.7374878 C16.9763875,45.0207431 17.2194701,45.2379309 17.5032568,45.2223632 C17.5059197,45.2219835 17.5082022,45.2219835 17.510865,45.2216038 L21.5359947,45.2216038 C21.8197814,45.2261602 22.0533538,45.0002394 22.0579188,44.7169841 C22.0624837,44.4337288 21.8361391,44.2005937 21.5523524,44.1960373 L21.5359947,44.1960373 L17.510865,44.1960373 C17.489562,44.1945185 17.4678786,44.1945185 17.4465756,44.1960373" id="Fill-48" fill="#BE4459" mask="url(#mask-2)"></path>
                    <path d="M5.37288784,20.035775 C5.08910117,20.0475456 4.86846274,20.2867559 4.88063589,20.5700112 C4.89242864,20.8532665 5.13208762,21.0734918 5.41587429,21.0613414 L9.46230703,21.0613414 C9.7460937,21.0651384 9.97890528,20.8384582 9.98270939,20.5552029 C9.98651351,20.2719476 9.75940809,20.0395719 9.47562142,20.035775 L9.46230703,20.035775 L5.41587429,20.035775 C5.40141867,20.0350156 5.38734346,20.0350156 5.37288784,20.035775" id="Fill-50" fill="#BE4459" mask="url(#mask-2)"></path>
                    <path d="M5.37288784,16.4828789 C5.08910117,16.4946496 4.86846274,16.7338599 4.88063589,17.0171152 C4.89242864,17.3003705 5.13208762,17.5205958 5.41587429,17.5084454 L9.46230703,17.5084454 C9.7460937,17.5122424 9.97890528,17.2855622 9.98270939,17.0026866 C9.98651351,16.7190516 9.75940809,16.4866759 9.47562142,16.4828789 L9.46230703,16.4828789 L5.41587429,16.4828789 C5.40141867,16.4821196 5.38734346,16.4821196 5.37288784,16.4828789" id="Fill-52" fill="#BE4459" mask="url(#mask-2)"></path>
                </g>
            </g>
        </g>
    </g>
</svg>