<?xml version="1.0" encoding="UTF-8" standalone="no"?>
<svg width="60px" height="53px" viewBox="0 0 60 53" version="1.1" xmlns="http://www.w3.org/2000/svg" xmlns:xlink="http://www.w3.org/1999/xlink">
    <!-- Generator: Sketch 40.3 (33839) - http://www.bohemiancoding.com/sketch -->
    <title>religios</title>
    <desc>Created with Sketch.</desc>
    <defs></defs>
    <g id="Page-1" stroke="none" stroke-width="1" fill="none" fill-rule="evenodd">
        <g id="Artboard" transform="translate(-709.000000, -32.000000)" stroke="#BE4459">
            <g id="Religous" transform="translate(688.000000, 33.000000)">
                <g id="religios" transform="translate(22.000000, 0.000000)">
                    <path d="M52.2637363,23.5875 C52.2637363,10.5604835 41.7055283,0 28.6813187,0 C15.6571091,0 5.0989011,10.5604835 5.0989011,23.5875" id="Oval"></path>
                    <path d="M38.8787207,51 L58,51 L58,23.5875 L51.9457941,23.5662163 L5.45772879,23.589679 C2.7386033,23.5915392 0.0195285671,23.601741 0.0195285671,23.601741 L0,51 L20.3960046,51 C20.395738,50.9446257 20.3956044,50.8891905 20.3956044,50.8336957 C20.3956044,41.0672602 24.5332805,33.15 29.6373626,33.15 C34.7414448,33.15 38.8791209,41.0672602 38.8791209,50.8336957 C38.8791209,50.8891905 38.8789873,50.9446257 38.8787207,51 Z" id="Combined-Shape"></path>
                </g>
            </g>
        </g>
    </g>
</svg>