<?xml version="1.0" encoding="UTF-8" standalone="no"?>
<svg width="59px" height="55px" viewBox="0 0 59 55" version="1.1" xmlns="http://www.w3.org/2000/svg" xmlns:xlink="http://www.w3.org/1999/xlink">
    <!-- Generator: Sketch 40.3 (33839) - http://www.bohemiancoding.com/sketch -->
    <title>Residential</title>
    <desc>Created with Sketch.</desc>
    <defs></defs>
    <g id="Page-1" stroke="none" stroke-width="1" fill="none" fill-rule="evenodd">
        <g id="Artboard" transform="translate(-844.000000, -31.000000)" fill="#BE4459">
            <g id="Residential" transform="translate(823.000000, 31.000000)">
                <path d="M50.8878942,2.29810978 C50.9681561,2.35929299 51.0510495,2.42244985 51.1365744,2.48823825 L78.5894146,23.5049996 C78.6058617,23.5174994 78.6150721,23.5727616 78.6032302,23.5898666 L75.9098532,27.4654611 L74.9486847,26.7095524 C74.5230338,26.3746895 74.0546204,26.1977187 73.5934437,26.1977187 C72.6947742,26.1977187 71.7849207,26.9009966 71.7849207,28.2457115 L71.7849207,53.0407005 L59.0831549,53.0407005 L59.0831549,38.5244906 C59.0831549,37.0731986 57.902911,35.8929548 56.451619,35.8929548 L45.2044346,35.8929548 C43.7531426,35.8929548 42.5728987,37.0731986 42.5728987,38.5244906 L42.5728987,53.0407005 L29.8711329,53.0407005 L29.8711329,28.2457115 C29.8711329,26.9016545 28.9612794,26.1977187 28.0626099,26.1977187 C27.6014332,26.1977187 27.1330198,26.3746895 26.7073689,26.7095524 L25.7462004,27.466119 L23.0528234,23.5898666 C23.0416394,23.5747353 23.0501919,23.5214467 23.0653232,23.5096048 L50.6405299,2.48692248 C50.7253969,2.42179197 50.8082903,2.3586351 50.8878942,2.29810978 L50.8878942,2.29810978 Z M50.8905258,0.643531592 C50.8898679,0.643531592 50.4181651,1.00207836 49.8431745,1.44022908 L22.26731,22.4629114 C21.6916615,22.90172 21.5587689,23.7471009 21.9719201,24.3405122 L24.7113489,28.282553 C24.9560818,28.6345209 25.3369966,28.8200442 25.725806,28.8200442 C25.9935648,28.8200442 26.264613,28.7312299 26.496846,28.548996 L27.5211714,27.7430881 C27.7191944,27.5871696 27.9047177,27.5128287 28.0626099,27.5128287 C28.3579998,27.5128287 28.555365,27.7733508 28.555365,28.2450536 L28.555365,53.0400426 C28.555365,53.7637149 29.1474605,54.3558105 29.8711329,54.3558105 L42.5728987,54.3558105 C43.2965711,54.3558105 43.8886667,53.7637149 43.8886667,53.0400426 L43.8886667,38.5244906 C43.8886667,37.8008183 44.4807623,37.2087227 45.2044346,37.2087227 L56.451619,37.2087227 C57.1752914,37.2087227 57.7673869,37.8008183 57.7673869,38.5244906 L57.7673869,53.0407005 C57.7673869,53.7643728 58.3594825,54.3564684 59.0831549,54.3564684 L71.7855786,54.3564684 C72.509251,54.3564684 73.1013465,53.7643728 73.1013465,53.0407005 L73.1013465,28.2457115 C73.1013465,27.7740087 73.2993696,27.5134866 73.5941016,27.5134866 C73.7513359,27.5134866 73.9368592,27.5878275 74.1348822,27.743746 L75.1598655,28.5496539 C75.3920985,28.7318877 75.6631467,28.8207021 75.9302476,28.8207021 C76.319057,28.8207021 76.6999718,28.6351788 76.9447047,28.2832109 L79.6841335,24.3411701 C80.0972847,23.7471009 79.96505,22.9010621 79.3907173,22.4609377 L51.9372192,1.44417639 C51.3622286,1.00405201 50.8911837,0.643531592 50.8905258,0.643531592 L50.8905258,0.643531592 L50.8905258,0.643531592 L50.8905258,0.643531592 Z"></path>
            </g>
        </g>
    </g>
</svg>