<?xml version="1.0" encoding="UTF-8" standalone="no"?>
<svg width="63px" height="48px" viewBox="0 0 63 48" version="1.1" xmlns="http://www.w3.org/2000/svg" xmlns:xlink="http://www.w3.org/1999/xlink">
    <!-- Generator: Sketch 40.3 (33839) - http://www.bohemiancoding.com/sketch -->
    <title>Residential Hosh</title>
    <desc>Created with Sketch.</desc>
    <defs></defs>
    <g id="Page-1" stroke="none" stroke-width="1" fill="none" fill-rule="evenodd">
        <g id="Artboard" transform="translate(-976.000000, -38.000000)">
            <g id="Residential-Hosh" transform="translate(958.000000, 38.000000)">
                <g transform="translate(18.000000, 0.000000)">
                    <path d="M18.5977603,13.6960309 C18.6484491,13.7353924 18.7007998,13.7760235 18.7548124,13.8183477 L36.0924572,27.3392154 C36.1028442,27.347257 36.108661,27.3828093 36.1011823,27.3938136 L34.4001994,29.8871283 L33.7931803,29.400824 C33.5243635,29.1853942 33.2285404,29.0715422 32.9372875,29.0715422 C32.3697392,29.0715422 31.7951278,29.5239872 31.7951278,30.3890925 L31.7951278,46.3406353 L23.7734185,46.3406353 L23.7734185,37.0018152 C23.7734185,36.0681448 23.0280439,35.3088498 22.1114908,35.3088498 L15.008412,35.3088498 C14.0918589,35.3088498 13.3464844,36.0681448 13.3464844,37.0018152 L13.3464844,46.3406353 L5.32477505,46.3406353 L5.32477505,30.3890925 C5.32477505,29.5244105 4.75016356,29.0715422 4.18261527,29.0715422 C3.89136245,29.0715422 3.59553933,29.1853942 3.32672253,29.400824 L2.71970345,29.8875515 L1.0187205,27.3938136 C1.01165731,27.384079 1.01705857,27.3497965 1.02661466,27.3421781 L18.4415391,13.8175012 C18.4951362,13.7756003 18.5474869,13.7349691 18.5977603,13.6960309 L18.5977603,13.6960309 Z M18.5994222,12.6315789 C18.5990067,12.6315789 18.3011062,12.8622455 17.937975,13.1441242 L0.522635095,26.6688012 C0.15908842,26.9511031 0.0751610737,27.4949683 0.336083715,27.8767319 L2.0661504,30.412794 C2.22070967,30.6392282 2.4612737,30.7585822 2.70682351,30.7585822 C2.87592465,30.7585822 3.0471032,30.7014446 3.19376832,30.5842068 L3.84067366,30.0657361 C3.96573371,29.9654279 4.08289961,29.9176017 4.18261527,29.9176017 C4.36916665,29.9176017 4.49381122,30.0852052 4.49381122,30.3886693 L4.49381122,46.3402121 C4.49381122,46.8057775 4.86774495,47.1866947 5.32477505,47.1866947 L13.3464844,47.1866947 C13.8035145,47.1866947 14.1774482,46.8057775 14.1774482,46.3402121 L14.1774482,37.0018152 C14.1774482,36.5362497 14.5513819,36.1553325 15.008412,36.1553325 L22.1114908,36.1553325 C22.5685209,36.1553325 22.9424546,36.5362497 22.9424546,37.0018152 L22.9424546,46.3406353 C22.9424546,46.8062008 23.3163883,47.187118 23.7734185,47.187118 L31.7955432,47.187118 C32.2525733,47.187118 32.6265071,46.8062008 32.6265071,46.3406353 L32.6265071,30.3890925 C32.6265071,30.0856285 32.7515671,29.9180249 32.937703,29.9180249 C33.0370032,29.9180249 33.1541691,29.9658512 33.2792292,30.0661594 L33.92655,30.58463 C34.0732151,30.7018679 34.2443936,30.7590055 34.4130793,30.7590055 C34.6586291,30.7590055 34.8991931,30.6396514 35.0537524,30.4132173 L36.7838191,27.8771552 C37.0447417,27.4949683 36.9612299,26.9506799 36.5985142,26.6675314 L19.2604539,13.1466637 C18.8973227,12.8635152 18.5998377,12.6315789 18.5994222,12.6315789 L18.5994222,12.6315789 L18.5994222,12.6315789 L18.5994222,12.6315789 Z" id="Residential" fill="#BE4459"></path>
                    <polyline id="Path-2" stroke="#BE4459" points="46.5271313 47.1708108 46.5271313 1.27154484 54.1598999 9.15995872"></polyline>
                    <path d="M46.5,0.631578947 L37.2,9.77649879" id="Path-3" stroke="#BE4459"></path>
                    <path d="M46.5,9.47368421 L38.44,17.5855034" id="Path-4" stroke="#BE4459"></path>
                    <path d="M46.5,19.5789474 L38.44,27.6907666" id="Path-4-Copy" stroke="#BE4459"></path>
                    <path d="M46.6376432,10.7960526 L54.4895967,18.435272" id="Path-5" stroke="#BE4459"></path>
                    <path d="M46.7641862,20.6895559 L53.6285914,27.6821589" id="Path-6" stroke="#BE4459"></path>
                    <polyline id="Path-7" stroke="#BE4459" points="31.8546191 46.766139 61.9130434 46.7195724 61.9130434 30.2820066"></polyline>
                </g>
            </g>
        </g>
    </g>
</svg>