<?xml version="1.0" encoding="UTF-8" standalone="no"?>
<svg width="58px" height="38px" viewBox="0 0 58 38" version="1.1" xmlns="http://www.w3.org/2000/svg" xmlns:xlink="http://www.w3.org/1999/xlink">
    <!-- Generator: Sketch 40.3 (33839) - http://www.bohemiancoding.com/sketch -->
    <title>Shape</title>
    <desc>Created with Sketch.</desc>
    <defs></defs>
    <g id="Page-1" stroke="none" stroke-width="1" fill="none" fill-rule="evenodd">
        <g id="Artboard" transform="translate(-171.000000, -44.000000)" fill="#BE4459">
            <g id="Social" transform="translate(149.000000, 44.000000)">
                <path d="M51,0.13372093 C46.1703282,0.13372093 42.2406561,4.06340515 42.2406561,8.89306478 C42.2406561,13.7227312 46.1703276,17.6524086 51,17.6524086 C55.8296718,17.6524086 59.7593439,13.7227312 59.7593439,8.89306478 C59.7593439,4.06340515 55.8296711,0.13372093 51,0.13372093 L51,0.13372093 Z M51,1.48131229 C55.1013775,1.48131229 58.4117525,4.79169743 58.4117525,8.89306478 C58.4117525,12.9944389 55.1013768,16.3048173 51,16.3048173 C46.8986225,16.3048173 43.5882475,12.9944389 43.5882475,8.89306478 C43.5882475,4.79169743 46.8986219,1.48131229 51,1.48131229 L51,1.48131229 Z M32.8075166,6.87167774 C29.8386226,6.87167774 27.4171512,9.29387888 27.4171512,12.2620432 C27.4171512,15.2301805 29.8386098,17.6313525 32.8075166,17.6313525 C35.7764234,17.6313525 38.1978821,15.2301805 38.1978821,12.2620432 C38.1978821,9.29387888 35.7764106,6.87167774 32.8075166,6.87167774 L32.8075166,6.87167774 Z M69.1924834,6.87167774 C66.2235894,6.87167774 63.8021179,9.29387888 63.8021179,12.2620432 C63.8021179,15.2301805 66.2235766,17.6313525 69.1924834,17.6313525 C72.1613902,17.6313525 74.5828488,15.2301805 74.5828488,12.2620432 C74.5828488,9.29387888 72.1613774,6.87167774 69.1924834,6.87167774 L69.1924834,6.87167774 Z M32.8075166,8.2192691 C35.0484014,8.2192691 36.8502907,10.0224542 36.8502907,12.2620432 C36.8502907,14.5015918 35.0483886,16.2837612 32.8075166,16.2837612 C30.5666447,16.2837612 28.7647425,14.5015918 28.7647425,12.2620432 C28.7647425,10.0224542 30.5666319,8.2192691 32.8075166,8.2192691 L32.8075166,8.2192691 Z M69.1924834,8.2192691 C71.4333681,8.2192691 73.2352575,10.0224542 73.2352575,12.2620432 C73.2352575,14.5015918 71.4333553,16.2837612 69.1924834,16.2837612 C66.9516114,16.2837612 65.1497093,14.5015918 65.1497093,12.2620432 C65.1497093,10.0224542 66.9515986,8.2192691 69.1924834,8.2192691 L69.1924834,8.2192691 Z M22.0267857,30.4545266 C22.026821,30.807326 22.3477924,31.1282549 22.7005814,31.1283223 L35.2921382,31.1283223 C34.563889,33.0110496 34.155108,35.0544131 34.155108,37.1924834 C34.1551452,37.564595 34.456792,37.8662418 34.8289037,37.8662791 L67.1710963,37.8662791 C67.543208,37.8662418 67.8448548,37.564595 67.844892,37.1924834 C67.844892,35.0544131 67.436111,33.0110496 66.7078618,31.1283223 L79.2994186,31.1283223 C79.6522072,31.1282549 79.9731792,30.807326 79.9732143,30.4545266 C79.9732143,24.5084145 75.1385281,19.6737957 69.1924834,19.6737957 C65.8615138,19.6737957 62.891756,21.2145393 60.9174302,23.5902331 C58.1324413,21.553433 54.7104385,20.3475914 51,20.3475914 C47.2895615,20.3475914 43.8675587,21.553433 41.0825698,23.5902331 C39.1082467,21.2138211 36.1390791,19.6737957 32.8075166,19.6737957 C26.8614719,19.6737957 22.0267857,24.5083471 22.0267857,30.4545266 Z M32.8075166,21.021387 C35.715701,21.021387 38.2794221,22.3611644 40.008708,24.4324777 C38.2959254,25.9085127 36.8906261,27.7321919 35.8817094,29.7807309 L23.4375454,29.7807309 C23.7893234,24.8858074 27.8215081,21.021387 32.8075166,21.021387 L32.8075166,21.021387 Z M69.1924834,21.021387 C74.1810126,21.021387 78.2142612,24.8823037 78.5624546,29.7807309 L66.1182906,29.7807309 C65.106994,27.7273588 63.6884762,25.9103933 61.9702359,24.4324777 C63.6996141,22.3506539 66.2736672,21.021387 69.1924834,21.021387 L69.1924834,21.021387 Z M51,21.6951827 C59.3370801,21.6951827 66.0759708,28.2707548 66.4341323,36.5186877 L35.5658677,36.5186877 C35.9240298,28.2707548 42.6629205,21.6951827 51,21.6951827 L51,21.6951827 Z" id="Shape"></path>
            </g>
        </g>
    </g>
</svg>