<svg width="47" height="53" viewBox="0 0 47 53" xmlns="http://www.w3.org/2000/svg"><title>Commercial</title><g fill="none" fill-rule="evenodd"><path d="M15.531 5.437h-5.057a.451.451 0 0 0-.451.451v10.115c0 .25.202.451.451.451h5.057a.45.45 0 0 0 .451-.451V5.889a.451.451 0 0 0-.45-.452zm-.45 10.114h-4.155v-9.21h4.154v9.21zM25.645 5.437H20.59a.451.451 0 0 0-.452.451v10.115c0 .25.201.451.452.451h5.056a.451.451 0 0 0 .451-.451V5.889a.451.451 0 0 0-.45-.452zm-.452 10.114H21.04v-9.21h4.153v9.21zm-9.662 5.057h-5.057a.451.451 0 0 0-.451.452v10.114c0 .25.202.452.451.452h5.057c.25 0 .451-.203.451-.452V21.06a.45.45 0 0 0-.45-.452zm-.45 10.115h-4.155v-9.212h4.154v9.212zm10.564-10.115H20.59a.451.451 0 0 0-.452.452v10.114c0 .25.201.452.452.452h5.056a.452.452 0 0 0 .451-.452V21.06a.451.451 0 0 0-.45-.452zm-.452 10.115H21.04v-9.212h4.153v9.212zm-9.662 5.057h-5.057a.452.452 0 0 0-.451.45v10.116c0 .249.202.45.451.45h5.057a.45.45 0 0 0 .451-.45V36.23a.451.451 0 0 0-.45-.452zm-.45 10.113h-4.155v-9.21h4.154v9.21zM25.645 35.78H20.59a.451.451 0 0 0-.452.45v10.116c0 .249.201.45.452.45h5.056a.452.452 0 0 0 .451-.45V36.23a.451.451 0 0 0-.45-.452zm-.452 10.113H21.04v-9.21h4.153v9.21zM35.76 35.78h-5.058a.452.452 0 0 0-.451.45v10.116c0 .249.202.45.451.45h5.057a.45.45 0 0 0 .451-.45V36.23a.451.451 0 0 0-.45-.452zm-.452 10.113h-4.154v-9.21h4.154v9.21z" fill="#BE4459"/><path stroke="#BE4459" d="M46.19 51.992H.52v-5.339h5.346V1.158H31.06V30.41h10.027v15.027l5.154.02v7.004"/></g></svg>