<svg width="29" height="44" viewBox="0 0 29 44" xmlns="http://www.w3.org/2000/svg"><title>Cultural</title><path d="M9.776 4.784h9.742l2.179-3.236h-14.1l2.18 3.236zm14.757 1.784c-1.33 0-2.979.824-4.902 2.45l-.254.215v2.51l.441.185c.042.018 4.292 1.864 5.084 5.692.066.315.125.652.177 1.001l.398 2.695.995-2.54a19.588 19.588 0 0 0 1.244-5.114c.304-3.001-.239-5.424-1.449-6.48-.459-.401-1.058-.614-1.734-.614zM4.751 6.56c-.671 0-1.253.209-1.726.623-1.21 1.056-1.75 3.478-1.448 6.479a19.64 19.64 0 0 0 1.245 5.115l.995 2.542.398-2.698c.051-.348.11-.685.177-1 .792-3.829 5.04-5.675 5.084-5.693l.439-.186V9.233l-.254-.215C7.726 7.386 6.074 6.56 4.75 6.56zm15.535 21.63h3.967l.122-.568c.363-1.681.562-3.516.577-5.309.012-1.667-.13-3.265-.411-4.62-.745-3.6-4.695-5.354-4.863-5.426l-.677-.28.008-.712V5.15h-8.724v6.841l-.67.277c-.167.072-4.117 1.826-4.863 5.425-.282 1.365-.424 2.963-.41 4.621.015 1.793.214 3.629.577 5.309l.122.568h2.147v-7.202h5.825v3.965h-1.82v3.237h5.088v-7.202h5.824v3.965h-1.819v3.237zM10.1 37.973l-2.753 4.092 1.15.153c1.867.248 3.936.374 6.15.374 2.214 0 4.284-.126 6.15-.374l1.15-.153-2.755-4.091-.564-.84.806-.617c1.232-.944 2.289-2.231 3.144-3.827.515-.966.958-2.045 1.315-3.21l.285-.926h-4.26V24.59h1.819v-3.236h-5.088v7.201h-5.824V24.59h1.818v-3.236H7.558v7.201H5.116l.284.927c.36 1.17.802 2.25 1.316 3.21.854 1.595 1.912 2.882 3.144 3.826l.806.618-.566.838zm4.547 4.985c-3.903 0-6.573-.393-7.906-.652l3.427-5.09-.533-.41c-1.906-1.46-3.375-3.66-4.367-6.54-1.072-3.115-1.296-6.17-1.294-8.186v-.205l-.108-.173c-1.403-2.252-2.37-5.17-2.656-8.004-.314-3.117.273-5.656 1.571-6.79.544-.474 1.203-.715 1.957-.715.324 0 .669.045 1.025.134.897.223 1.907.737 3.001 1.525l1.151.828V5.65L6.908 1.183h15.477l-3.008 4.465v3.03l1.15-.827c1.098-.79 2.108-1.302 3.003-1.524.357-.09.702-.135 1.025-.135.755 0 1.414.24 1.958.716 1.298 1.133 1.885 3.672 1.571 6.788-.286 2.836-1.254 5.754-2.656 8.005l-.107.173v.205c.001 2.016-.223 5.071-1.295 8.185-.992 2.88-2.462 5.08-4.367 6.541l-.535.41 3.428 5.09c-1.338.258-4.016.652-7.905.652z" stroke="#BE4459" fill="#BE4459" fill-rule="evenodd"/></svg>