<svg width="54" height="41" viewBox="0 0 54 41" xmlns="http://www.w3.org/2000/svg"><title>Fill 1</title><path d="M1.396 4.08c2.079-1.008 4.277-1.702 6.559-2.142v18.313l6-5.017 5.507 5.076V2.02c4.134.812 6.897 2.147 7.08 2.237v35.708c-3.836-1.77-7.988-2.676-12.358-2.676-5.911 0-10.653 1.626-12.787 2.505V4.081h-.001zm17.24-2.214v16.598l-4.653-4.291-5.204 4.35V1.801c1.478-.238 2.981-.399 4.528-.399 1.915 0 3.712.186 5.33.464zm33.875 2.215v35.714c-2.134-.88-6.874-2.505-12.787-2.505-4.371 0-8.522.906-12.359 2.675V4.256c.264-.13 5.89-2.854 13.234-2.854 4.245 0 8.25.901 11.912 2.679zM26.953 41.024c4.449-2.217 8.863-2.957 12.771-2.957 7.817 0 13.611 2.957 13.611 2.957V3.61C48.926 1.371 44.515.625 40.6.625c-7.8 0-13.646 2.957-13.646 2.957S21.106.625 13.307.625c-3.916 0-8.325.746-12.736 2.986v37.413s5.794-2.957 13.612-2.957c3.907 0 8.322.738 12.77 2.957z" fill="#BE4459" fill-rule="evenodd"/></svg>