<svg width="33" height="42" viewBox="0 0 33 42" xmlns="http://www.w3.org/2000/svg"><title>General Buildings</title><g fill="#FCCA34" fill-rule="evenodd"><path d="M32.571 41.118H0V.172l16.286 7.226L32.57.172v40.946zm-30.857-1.72h29.143V2.838L16.286 9.377 1.714 2.84v36.559z"/><path d="M24.686 12.387H26.4v4.301h-1.714zm-6.172 0h1.714v4.301h-1.714zm-6.171 0h1.714v4.301h-1.714zm-6.172 0h1.714v4.301H6.171zM24.686 23.14H26.4v4.301h-1.714zm-6.172 0h1.714v4.301h-1.714zm-6.171 0h1.714v4.301h-1.714zm-6.172 0h1.714v4.301H6.171zm13.543 17.978h-6.857V30.796h6.857v10.322zm-5.143-1.72H18v-6.882h-3.429v6.882z"/></g></svg>