<svg width="61" height="48" viewBox="0 0 61 48" xmlns="http://www.w3.org/2000/svg"><title>HOUSING CONDITIONS</title><g transform="translate(1 1)" stroke="#FCCA34" fill="none" fill-rule="evenodd"><path d="M16 46V23h27v23h-9V34.5h-9V46zm14-24.107H12L30 14l18 8z"/><path d="M26 35h3v10h-3zm4 0h3v10h-3zm-9-13l9-8 9 8"/><ellipse cx="28.225" cy="39.225" rx=".225" ry=".225"/><ellipse cx="31.225" cy="39.225" rx=".225" ry=".225"/><path d="M51 29.852C51 17.783 41.374 8 29.5 8S8 17.783 8 29.852"/><path d="M55 29.825C55 15.562 43.583 4 29.5 4S4 15.562 4 29.825"/><path d="M59 29.798C59 13.341 45.792 0 29.5 0S0 13.341 0 29.798"/></g></svg>