<svg xmlns="http://www.w3.org/2000/svg" viewBox="0 0 61 48"><title>HOUSING CONDITIONS</title><g transform="translate(1 1)" fill="none" stroke="#BE4459"><path d="M16 46V23h27v23h-9V34.5h-9V46zm14-24.1H12L30 14l18 8z"/><path d="M26 35h3v10h-3zm4 0h3v10h-3zm-9-13l9-8 9 8"/><ellipse cx="28.2" cy="39.2" rx=".2" ry=".2"/><ellipse cx="31.2" cy="39.2" rx=".2" ry=".2"/><path d="M51 29.9C51 17.8 41.4 8 29.5 8S8 17.8 8 29.9"/><path d="M55 29.8C55 15.6 43.6 4 29.5 4S4 15.6 4 29.8"/><path d="M59 29.8C59 13.3 45.8 0 29.5 0S0 13.3 0 29.8"/></g></svg>