<svg width="39" height="50" viewBox="0 0 39 50" xmlns="http://www.w3.org/2000/svg" xmlns:xlink="http://www.w3.org/1999/xlink"><title>Icon</title><defs><path id="a" d="M.617.407v49.25h37.4V.407z"/></defs><g fill="none" fill-rule="evenodd"><path d="M5.373 24.3a.513.513 0 1 0 .043 1.025h4.046a.513.513 0 1 0 .014-1.026H5.373m.004 4.264a.514.514 0 1 0 .035 1.026h4.054a.513.513 0 1 0 .017-1.026H5.377m-.004 3.553a.513.513 0 1 0 .043 1.025h4.046a.513.513 0 1 0 .014-1.025H5.373m.004 4.264a.514.514 0 1 0 .035 1.025h4.054a.513.513 0 1 0 .017-1.026H5.377m-.004 4.264a.514.514 0 1 0 .043 1.026h4.047a.513.513 0 1 0 .01-1.026h-4.1m.004 3.552a.514.514 0 1 0 .035 1.026h4.054a.513.513 0 1 0 .017-1.026H5.377m0 4.264a.514.514 0 1 0 .035 1.026h4.054a.513.513 0 1 0 .017-1.026H5.377" fill="#BE4459"/><mask id="b" fill="#fff"><use xlink:href="#a"/></mask><path d="M25.894 25.543h11.09v23.079h-11.09v-23.08zM1.658 13.49h11.09c-.002 11.71 0 23.418 0 35.132H1.658c.002-11.712 0-23.43 0-35.132zM13.776 1.438h11.09c-.008 15.748 0 31.445 0 47.184h-11.09c.007-17.567 0-30.302 0-47.184zM13.155.412a.514.514 0 0 0-.192.085L12.94.52a.562.562 0 0 0-.043.043.452.452 0 0 0-.043.02v.022l-.021.022v.021a.516.516 0 0 0-.086.17V.84a.511.511 0 0 0 0 .235v11.39H1.187a.522.522 0 0 0-.15 0 .517.517 0 0 0-.192.086.562.562 0 0 0-.022.021.458.458 0 0 0-.043.043.445.445 0 0 0-.042.021v.022a.383.383 0 0 0-.022.02v.022a.518.518 0 0 0-.086.171v.022a.511.511 0 0 0 0 .235v36.008c0 .268.245.512.514.512 12.078.008 24.13 0 36.204 0h.064c.064.013.13.013.193 0 .03-.007.058-.011.086-.021.021-.007.043-.013.064-.021a.65.65 0 0 0 .043-.043l.042-.02a.447.447 0 0 0 .022-.043l.043-.022a.492.492 0 0 0 .064-.106.51.51 0 0 0 .021-.086.447.447 0 0 0 .022-.042.602.602 0 0 0 0-.064.519.519 0 0 0 0-.15V25.031a.533.533 0 0 0-.514-.513H25.894V1.033a.504.504 0 0 0 0-.107.5.5 0 0 0 0-.107.516.516 0 0 0-.107-.214h-.022a.517.517 0 0 0-.235-.17.49.49 0 0 0-.15-.022H13.305a.496.496 0 0 0-.15 0V.412z" fill="#BE4459" mask="url(#b)"/><path d="M17.443 4.404a.514.514 0 1 0 .064 1.025h4.025a.513.513 0 1 0 .013-1.025h-4.038a.454.454 0 0 0-.064 0m0 3.552a.514.514 0 1 0 .064 1.026h4.025a.514.514 0 1 0 .013-1.026h-4.038a.454.454 0 0 0-.064 0m0 4.264a.514.514 0 1 0 .064 1.026h4.025a.513.513 0 1 0 .013-1.026h-4.038a.454.454 0 0 0-.064 0m0 4.263a.514.514 0 1 0 .064 1.026h4.025a.513.513 0 1 0 .013-1.026h-4.038a.454.454 0 0 0-.064 0m0 3.553a.514.514 0 1 0 .064 1.026h4.025a.513.513 0 1 0 .013-1.026h-4.038a.454.454 0 0 0-.064 0m0 4.264a.514.514 0 1 0 .064 1.025h4.025a.513.513 0 1 0 .013-1.025h-4.038a.454.454 0 0 0-.064 0m.004 4.263a.515.515 0 1 0 .056 1.027l.008-.001h4.025a.513.513 0 1 0 .016-1.026h-4.041a.454.454 0 0 0-.064 0m-.004 3.553a.514.514 0 1 0 .064 1.026h4.025a.513.513 0 1 0 .013-1.026h-4.038a.454.454 0 0 0-.064 0m.004 4.264a.515.515 0 1 0 .056 1.026h4.033a.513.513 0 1 0 .016-1.026h-4.041a.454.454 0 0 0-.064 0m-.004 4.263a.514.514 0 1 0 .064 1.026h4.025a.513.513 0 1 0 .01-1.026h-4.035a.454.454 0 0 0-.064 0m12.079 0a.514.514 0 1 0 .065 1.026h4.025a.513.513 0 1 0 .01-1.026h-4.035a.454.454 0 0 0-.065 0m.004-4.263a.515.515 0 1 0 .057 1.026h4.033a.513.513 0 1 0 .016-1.026h-4.041a.454.454 0 0 0-.065 0m-.004-4.264a.514.514 0 1 0 .065 1.026h4.025a.513.513 0 1 0 .013-1.026h-4.038a.454.454 0 0 0-.065 0m.004-3.553a.515.515 0 1 0 .057 1.027l.008-.001h4.025a.513.513 0 1 0 .016-1.026h-4.041a.454.454 0 0 0-.065 0m0 15.633a.515.515 0 1 0 .057 1.026h4.033a.513.513 0 1 0 .016-1.026h-4.041a.454.454 0 0 0-.065 0m-12.079 0a.515.515 0 1 0 .056 1.026h4.033a.513.513 0 1 0 .016-1.026h-4.041a.454.454 0 0 0-.064 0M5.373 20.036a.513.513 0 1 0 .043 1.025h4.046a.513.513 0 1 0 .014-1.025H5.373m0-3.553a.513.513 0 1 0 .043 1.025h4.046a.513.513 0 1 0 .014-1.025H5.373" fill="#BE4459" mask="url(#b)"/></g></svg>