<svg width="63" height="48" viewBox="0 0 63 48" xmlns="http://www.w3.org/2000/svg"><title>Residential Hosh</title><g fill="none" fill-rule="evenodd"><path d="M18.598 13.696l.157.122L36.092 27.34c.01.008.017.044.01.055L34.4 29.887l-.607-.486c-.269-.216-.564-.33-.856-.33-.567 0-1.142.453-1.142 1.318v15.952h-8.022V37c0-.933-.745-1.692-1.662-1.692h-7.103c-.916 0-1.662.76-1.662 1.693v9.339H5.325V30.389c0-.865-.575-1.317-1.142-1.317-.292 0-.587.113-.856.329l-.607.487-1.701-2.494c-.007-.01-.002-.044.008-.052l17.415-13.524.156-.122zm.001-1.064l-.661.512L.523 26.67a.906.906 0 0 0-.187 1.208l1.73 2.536a.774.774 0 0 0 .64.346c.17 0 .341-.058.488-.175l.647-.518c.125-.1.242-.148.342-.148.186 0 .31.167.31.47V46.34c0 .466.375.847.832.847h8.021a.84.84 0 0 0 .831-.847v-9.338c0-.466.374-.847.831-.847h7.103a.84.84 0 0 1 .831.847v9.339c0 .465.374.846.831.846h8.023a.84.84 0 0 0 .83-.846V30.389c0-.303.126-.471.312-.471.099 0 .216.048.341.148l.648.519a.777.777 0 0 0 .486.174c.246 0 .486-.12.64-.346l1.73-2.536a.909.909 0 0 0-.184-1.21L19.26 13.148l-.66-.515z" fill="#BE4459"/><path stroke="#BE4459" d="M46.527 47.17V1.273L54.16 9.16M46.5.632l-9.3 9.144m9.3-.302l-8.06 8.112m8.06 1.993l-8.06 8.112m8.198-16.895l7.852 7.64m-7.726 2.254l6.865 6.992"/><path stroke="#BE4459" d="M31.855 46.766l30.058-.046V30.282"/></g></svg>