<svg width="59" height="55" viewBox="0 0 59 55" xmlns="http://www.w3.org/2000/svg"><title>Residential</title><path d="M29.888 2.298l.249.19 27.452 21.017c.017.012.026.068.014.085l-2.693 3.875-.961-.755c-.426-.335-.894-.512-1.356-.512-.898 0-1.808.703-1.808 2.048V53.04H38.083V38.524a2.634 2.634 0 0 0-2.631-2.631H24.204a2.634 2.634 0 0 0-2.631 2.631v14.517H8.87V28.246c0-1.344-.91-2.048-1.808-2.048-.462 0-.93.177-1.356.512l-.96.756-2.694-3.876c-.011-.015-.003-.069.012-.08L29.641 2.487l.247-.189zM29.89.644c-.001 0-.473.358-1.048.796L1.267 22.463a1.39 1.39 0 0 0-.295 1.878l2.74 3.942a1.231 1.231 0 0 0 1.785.266l1.024-.806c.198-.156.384-.23.542-.23.295 0 .492.26.492.732V53.04a1.32 1.32 0 0 0 1.316 1.316h12.702a1.32 1.32 0 0 0 1.316-1.316V38.524a1.32 1.32 0 0 1 1.315-1.315h11.248a1.32 1.32 0 0 1 1.315 1.315v14.517a1.32 1.32 0 0 0 1.316 1.315h12.703a1.32 1.32 0 0 0 1.315-1.315V28.246c0-.472.198-.733.493-.733.157 0 .343.075.54.23l1.026.807a1.231 1.231 0 0 0 1.785-.266l2.74-3.943c.412-.594.28-1.44-.294-1.88L30.937 1.444l-1.046-.8z" fill="#BE4459" fill-rule="evenodd"/></svg>